<svg version="1.0" xmlns="http://www.w3.org/2000/svg" width="210.000000pt" height="210.000000pt" viewBox="0 0 210.000000 210.000000" preserveAspectRatio="xMidYMid meet"><g transform="translate(0.000000,210.000000) scale(0.100000,-0.100000)" fill="#000" stroke="none"><path d="M840 1978 c-41 -4 -95 -12 -120 -19 -25 -6 -52 -12 -60 -14 -36 -7 -170 -72 -232 -113 -80 -52 -192 -160 -236 -228 -17 -27 -35 -53 -40 -59 -11 -14 -49 -96 -75 -163 -20 -53 -22 -74 -22 -282 0 -124 3 -237 7 -253 13 -52 74 -182 113 -242 47 -71 227 -255 250 -255 2 0 24 -13 48 -30 25 -16 52 -30 62 -30 9 0 13 -4 10 -10 -4 -6 5 -10 20 -10 17 0 24 -4 19 -11 -4 -7 -1 -10 7 -7 8 3 20 -2 27 -11 8 -9 11 -10 7 -3 -3 6 -1 12 4 12 6 0 11 -4 11 -10 0 -5 7 -6 17 -3 10 4 14 2 10 -4 -10 -16 18 -24 33 -10 10 10 11 8 6 -8 -4 -11 -4 -16 0 -12 4 4 13 2 20 -4 8 -7 14 -6 20 2 4 7 3 9 -4 5 -6 -3 -13 -2 -16 3 -11 17 26 5 39 -13 11 -14 14 -14 18 -2 8 19 48 17 44 -3 -1 -9 7 -15 25 -16 15 -1 25 2 22 6 -2 4 -14 6 -26 4 -11 -3 -17 -1 -14 3 4 4 11 7 14 7 4 0 13 4 21 9 9 6 12 5 8 -1 -3 -5 17 -8 51 -7 31 1 57 3 57 4 0 9 44 6 48 -4 3 -7 -1 -13 -9 -13 -7 0 -10 5 -7 11 5 8 3 8 -8 0 -8 -6 -38 -10 -66 -9 -29 1 -53 -2 -53 -6 0 -4 27 -6 61 -5 33 1 63 -2 65 -6 3 -5 11 -5 17 -1 7 4 23 8 37 8 14 0 30 3 35 6 6 4 20 5 32 4 14 -1 19 3 16 12 -3 7 -1 13 5 13 6 0 12 -6 15 -12 3 -10 7 -10 20 0 9 8 21 11 27 7 5 -3 10 -1 10 5 0 6 4 9 9 5 5 -3 12 -1 16 4 3 6 12 8 20 4 8 -3 15 0 15 7 0 6 4 9 9 5 14 -8 21 9 10 25 -7 13 -9 13 -9 0 0 -13 -2 -13 -11 0 -9 13 -10 12 -5 -3 4 -12 2 -16 -6 -11 -7 5 -8 3 -3 -7 7 -11 5 -11 -10 1 -15 12 -17 12 -10 1 5 -9 4 -12 -3 -7 -6 3 -13 2 -17 -4 -4 -6 -10 -8 -15 -5 -5 3 -12 0 -16 -6 -4 -8 -9 -7 -15 2 -7 11 -9 11 -9 1 0 -7 -4 -10 -10 -7 -5 3 -16 3 -22 -2 -7 -4 -16 -8 -20 -9 -5 -1 -9 -3 -10 -4 -9 -7 -77 -5 -69 3 5 5 26 10 47 10 22 1 42 6 45 10 3 5 20 9 37 9 18 1 29 5 25 11 -3 6 -1 7 5 3 6 -3 13 -2 17 4 4 6 11 8 16 5 5 -4 9 0 9 7 0 11 2 10 9 0 7 -11 9 -10 15 3 3 9 10 14 15 10 6 -3 14 3 20 12 6 11 11 13 11 5 0 -7 5 -10 10 -7 6 3 10 1 10 -4 0 -6 -4 -11 -10 -11 -5 0 -10 -5 -10 -11 0 -5 4 -8 8 -5 4 2 7 -19 7 -48 -2 -103 24 -143 98 -150 19 -2 40 -7 46 -10 6 -4 11 -3 11 1 0 5 13 9 29 8 23 0 27 -3 19 -13 -9 -11 -13 -11 -19 0 -5 7 -9 8 -9 2 0 -6 -13 -10 -29 -10 -17 0 -28 3 -25 7 5 9 -24 5 -31 -4 -3 -4 -2 -5 2 -2 9 7 34 -16 27 -26 -3 -5 0 -9 5 -9 6 0 11 5 11 10 0 6 5 10 11 10 5 0 7 -6 3 -12 -4 -7 3 -4 16 7 17 15 22 16 18 5 -5 -13 3 -16 42 -15 26 0 56 7 66 15 16 13 17 13 12 0 -5 -13 11 -15 107 -15 63 0 113 2 113 5 -1 18 4 23 12 10 8 -13 109 -23 108 -10 -2 19 4 22 15 7 8 -11 17 -14 26 -8 13 8 13 12 0 27 -12 16 -12 17 1 12 13 -5 15 14 15 128 0 73 -3 130 -7 128 -5 -3 -11 2 -14 10 -3 9 -9 14 -13 12 -3 -2 -6 29 -7 70 0 41 2 74 6 74 4 0 6 -16 5 -34 -1 -19 1 -33 5 -31 3 2 6 -13 6 -33 -1 -20 3 -37 9 -37 5 0 10 30 10 67 1 37 -3 64 -7 62 -4 -3 -11 2 -14 10 -3 9 -9 14 -13 12 -3 -2 -6 22 -7 55 0 32 3 59 8 59 4 0 7 -3 7 -8 -1 -4 0 -10 1 -14 1 -5 3 -26 4 -48 2 -61 21 -48 21 14 1 30 -2 53 -6 50 -4 -2 -10 0 -14 6 -3 5 -1 10 4 10 6 0 11 4 11 8 0 5 -7 9 -15 9 -8 0 -12 -4 -9 -9 3 -4 0 -8 -5 -8 -6 0 -11 9 -11 21 0 32 -53 79 -89 79 -17 0 -31 5 -31 11 0 5 5 7 11 3 7 -4 7 1 -1 16 -11 20 -10 22 6 16 12 -5 9 2 -9 20 -25 25 -31 37 -28 56 0 5 -2 7 -7 7 -21 -4 -24 3 -6 17 10 8 14 13 7 9 -15 -7 -13 46 2 57 6 5 4 8 -4 8 -11 0 -9 4 5 14 18 14 18 15 1 22 -15 5 -16 9 -5 15 10 7 11 9 0 9 -7 0 -10 5 -7 10 4 6 10 8 13 6 4 -2 7 13 7 34 0 36 -13 47 -32 25 -4 -4 -3 -5 4 -1 8 4 11 0 8 -14 -2 -11 1 -20 6 -20 6 0 7 -5 3 -11 -5 -8 -9 -8 -14 1 -4 6 -6 -12 -5 -42 1 -29 -3 -59 -8 -66 -8 -10 -7 -16 2 -22 9 -5 10 -10 2 -14 -19 -12 -32 3 -21 25 8 14 7 19 -2 19 -8 0 -9 3 -3 8 14 10 17 26 19 102 2 61 3 65 24 62 12 -2 22 2 22 8 0 6 -4 9 -9 6 -21 -14 -38 6 -39 47 -1 76 -6 117 -13 117 -4 0 -6 8 -4 18 1 9 -2 25 -7 35 -6 12 -6 23 1 31 7 9 7 16 -1 24 -7 7 -8 12 -4 12 5 0 3 7 -4 15 -7 8 -9 15 -5 15 4 0 2 7 -5 15 -7 8 -15 13 -19 11 -3 -2 -11 6 -17 19 -10 20 -9 23 5 19 9 -3 6 1 -6 7 -12 6 -24 18 -28 27 -4 11 -2 12 8 6 7 -5 5 -1 -6 8 -10 10 -16 22 -12 28 3 5 -1 10 -9 10 -9 0 -16 5 -16 11 0 6 -9 18 -20 27 -10 10 -20 24 -22 32 -2 8 -15 24 -30 36 -15 11 -25 24 -21 27 3 4 1 7 -4 7 -6 0 -28 16 -48 36 -55 54 -190 137 -276 171 -96 39 -146 51 -249 59 -36 3 -69 7 -75 8 -5 1 -44 -1 -85 -6z m927 -555 c-4 -3 -2 -12 4 -20 6 -7 8 -13 4 -13 -4 0 -2 -7 5 -15 9 -10 9 -15 1 -15 -6 0 -12 5 -12 10 -1 6 -2 14 -3 19 0 5 -4 13 -8 17 -12 11 -10 24 4 24 6 0 8 -3 5 -7z m68 -612 c-3 -6 2 -14 10 -18 18 -11 31 -63 15 -63 -6 0 -9 -4 -6 -8 3 -5 -1 -9 -9 -9 -8 0 -15 4 -15 9 0 4 5 8 11 8 5 0 7 5 3 11 -4 8 -11 4 -19 -11 -8 -15 -15 -19 -19 -11 -4 6 -2 11 4 11 6 0 8 5 5 11 -4 5 1 19 10 29 17 19 17 20 1 26 -14 5 -15 9 -4 15 17 11 20 11 13 0z m192 -383 c4 -28 -6 -18 -12 12 -2 12 -1 20 2 16 4 -4 8 -16 10 -28z m-10 -130 c4 -7 8 -62 8 -122 0 -92 -2 -110 -17 -119 -15 -10 -15 -12 -1 -22 13 -10 13 -14 3 -20 -8 -5 -11 -4 -7 2 10 15 -18 24 -32 10 -12 -12 -93 -18 -85 -6 9 15 -22 16 -38 1 -10 -8 -18 -10 -18 -4 0 6 6 13 13 15 9 4 9 6 -1 6 -7 1 -15 -6 -19 -15 -5 -13 -7 -13 -14 -2 -8 11 -10 11 -18 0 -7 -11 -9 -11 -14 2 -8 19 -55 15 -69 -6 -6 -11 -8 -11 -8 0 0 8 -5 10 -12 5 -23 -14 -37 -11 -43 8 -6 19 -7 18 -26 -3 -12 -13 -18 -17 -14 -10 3 6 1 12 -4 12 -6 0 -11 -6 -12 -12 0 -10 -2 -10 -6 0 -2 6 -10 9 -16 5 -15 -9 -37 -13 -37 -6 0 3 10 13 22 23 17 13 28 15 40 9 10 -5 18 -6 18 -1 0 4 13 8 29 7 22 0 27 -3 19 -12 -7 -9 -7 -13 0 -13 5 0 14 6 20 13 11 12 97 15 109 3 9 -9 25 -7 19 2 -6 10 51 9 60 -1 10 -10 26 -9 20 1 -3 5 9 8 27 8 18 -1 38 4 45 11 8 7 18 11 23 8 5 -4 9 -1 9 4 0 6 -4 11 -9 11 -5 0 -4 11 2 25 7 14 16 25 20 25 5 0 6 -4 2 -9 -3 -5 -1 -12 4 -15 5 -4 8 2 7 11 -2 9 -8 19 -15 21 -8 3 -6 9 6 18 13 10 13 12 3 9 -13 -5 -16 6 -16 65 0 68 6 84 23 58z m-247 -277 c0 -4 -11 -7 -24 -7 -14 0 -23 3 -21 6 5 9 45 10 45 1z"/><path d="M1829 763 c-7 -10 -9 -15 -5 -11 5 4 15 3 22 -3 9 -7 12 -6 10 5 -3 25 -12 28 -27 9z"/><path d="M2005 240 c0 -32 2 -57 5 -54 7 7 8 104 1 108 -3 2 -6 -22 -6 -54z"/><path d="M1990 103 c0 -5 5 -14 12 -21 9 -9 9 -12 0 -13 -22 -3 -27 -4 -42 -14 -8 -5 -25 -10 -38 -10 -32 -1 -27 -19 5 -20 50 -1 114 70 76 83 -7 2 -13 0 -13 -5z m-10 -47 c0 -2 -8 -10 -17 -17 -16 -13 -17 -12 -4 4 13 16 21 21 21 13z"/><path d="M1559 33 c-12 -16 -12 -17 2 -6 9 7 20 9 24 5 5 -4 5 -1 1 6 -9 16 -11 15 -27 -5z"/><path d="M1679 33 c-12 -16 -12 -17 2 -6 9 7 20 9 24 5 5 -4 5 -1 1 6 -9 16 -11 15 -27 -5z"/><path d="M1796 1341 c-4 -5 -2 -12 3 -15 5 -4 12 -2 15 3 4 5 2 12 -3 15 -5 4 -12 2 -15 -3z"/><path d="M1807 1304 c-3 -4 -2 -14 3 -24 5 -10 7 -20 5 -24 -3 -3 -2 -4 2 -1 11 9 12 35 2 35 -6 0 -7 5 -4 10 7 11 2 13 -8 4z"/><path d="M1821 1236 c-8 -9 -8 -16 -2 -20 5 -4 8 -15 6 -26 -4 -19 21 -48 32 -36 3 3 1 6 -5 6 -6 0 -9 9 -7 20 2 11 0 22 -5 25 -5 3 -7 14 -5 25 5 24 2 25 -14 6z"/><path d="M1824 1132 c3 -18 18 -20 24 -4 1 5 -4 12 -12 15 -9 4 -13 0 -12 -11z"/><path d="M795 190 c3 -5 8 -10 11 -10 2 0 4 5 4 10 0 6 -5 10 -11 10 -5 0 -7 -4 -4 -10z"/></g></svg>